<svg width="1600" height="450" viewBox="0 0 1600 450" fill="none" xmlns="http://www.w3.org/2000/svg">
<path d="M1308.7 418.904C1297.75 416.329 1293.82 413.23 1295.61 408.582C1296.4 406.505 1297.51 406.584 1302.69 409.09C1316.63 415.84 1331.82 413.146 1337 403.008C1340.35 396.43 1340.9 386 1337.89 386C1337.3 386 1334.97 387.585 1332.7 389.523C1328.73 392.921 1321 396 1316.43 396C1311.92 396 1303.76 392.543 1299.57 388.852C1293.58 383.578 1290.73 377.186 1290.72 368.977C1290.68 345.19 1316.39 332.532 1334.25 347.553C1336.31 349.294 1337.61 349.786 1338.31 349.092C1339.19 348.209 1339.46 347.146 1339.92 342.69C1339.96 342.244 1341.69 342.019 1343.75 342.19L1347.5 342.5L1347.79 370.5C1347.99 390.447 1347.72 399.793 1346.84 402.997C1345.08 409.386 1337.9 416.359 1330.94 418.425C1325.22 420.123 1314.83 420.347 1308.7 418.904ZM1327.28 386.653C1331.77 384.776 1337.68 377.898 1338.99 373.042C1342.64 359.481 1330.3 345.081 1317.09 347.493C1306.64 349.403 1299.51 357.982 1299.5 368.664C1299.5 373.919 1299.95 375.465 1302.54 379.155C1306.66 385.009 1312.09 387.963 1318.78 387.984C1321.69 387.993 1325.51 387.394 1327.28 386.653ZM905 399.457C897.997 397.503 892.769 394.045 889.044 388.902C883.811 381.678 883.529 379.721 883.514 350.5L883.5 323.5L887.25 323.19C890.887 322.889 891.001 322.979 891.019 326.19C891.13 345.032 892.278 374.221 893.018 377C894.282 381.742 899.307 387.6 904.347 390.204C912.833 394.589 925.409 392.58 931.702 385.834C936.995 380.16 937.453 377.418 937.812 349.251L938.147 323.001L940.571 322.393C946.286 320.958 946.201 320.493 945.768 350.75C945.351 379.925 945.067 381.935 940.362 388.946C934.058 398.339 918.046 403.098 905 399.457ZM1085.5 399.645C1072.35 395.341 1066.06 386.348 1066.02 371.788C1065.98 358.327 1071.25 348.548 1081.19 343.59C1089.91 339.249 1099.36 340.335 1107.59 346.623C1110.16 348.584 1112.62 349.784 1113.09 349.311C1113.56 348.841 1114.07 341.716 1114.22 333.478L1114.5 318.5L1118.22 318.192C1121.39 317.928 1122.01 318.218 1122.49 320.192C1122.8 321.461 1122.93 339.6 1122.78 360.5L1122.5 398.5H1118.5C1114.79 398.5 1114.48 398.279 1114.17 395.5C1113.67 390.883 1112.36 390.283 1109.26 393.253C1103.27 398.988 1092.41 401.909 1085.5 399.645ZM1102.54 391.12C1110.85 387.347 1114.43 380.17 1113.84 368.48C1113.52 362.249 1113.01 360.469 1110.44 356.822C1101.49 344.085 1084.54 345.253 1077.65 359.081C1072.91 368.578 1074.34 380.336 1081.03 387.026C1087 392.995 1095.04 394.527 1102.54 391.12ZM1158.87 399.157C1152.04 396.394 1147.68 392.656 1144.41 386.754C1141.71 381.887 1141.5 380.726 1141.5 371C1141.5 361.244 1141.71 360.123 1144.45 355.176C1149.53 345.996 1157.89 340.915 1167.97 340.867C1182.34 340.798 1193.47 352.845 1193.49 368.5L1193.5 374.5L1172.35 374.131C1152.06 373.777 1151.16 373.843 1150.13 375.752C1149.29 377.323 1149.61 378.826 1151.63 382.886C1154.53 388.703 1159.82 392.468 1166.63 393.556C1171.33 394.308 1180.99 391.92 1182.99 389.51C1184.59 387.59 1188.39 387.561 1189.97 389.458C1190.95 390.639 1190.68 391.412 1188.57 393.523C1182.09 400.006 1167.71 402.733 1158.87 399.157L1158.87 399.157ZM1184.5 367.621C1186.23 366.362 1186.28 365.864 1185.08 361.871C1183.29 355.898 1180.55 352.322 1175.96 349.977C1170.99 347.442 1164.98 347.461 1159.95 350.027C1153.07 353.534 1147.13 364.039 1150.03 367.541C1151.74 369.602 1181.7 369.672 1184.5 367.621ZM1456.5 399.644C1449.89 397.483 1446.39 395.27 1442.63 390.885C1436.02 383.158 1433.81 369.994 1437.36 359.391C1442.02 345.438 1457.81 337.353 1471.42 341.944C1476.18 343.55 1483.51 350.114 1486 355.009C1488.07 359.051 1490.41 370.494 1489.6 372.592C1489.19 373.681 1484.62 374.016 1467.29 374.23C1445.78 374.497 1445.5 374.528 1445.19 376.673C1444.74 379.823 1448.46 386.497 1452.24 389.318C1459.8 394.966 1467.52 395.144 1476.85 389.886C1481.91 387.035 1482.3 386.963 1484.07 388.561C1486.83 391.058 1485.08 393.352 1477.75 396.888C1470.35 400.452 1462.2 401.509 1456.5 399.644ZM1480.38 366.962C1481.7 365.732 1480.23 359.637 1477.73 355.954C1474.23 350.814 1470.67 348.72 1464.58 348.215C1459.95 347.831 1458.38 348.174 1454.57 350.406C1449.27 353.512 1444.69 360.481 1445.18 364.708L1445.5 367.5L1460.5 368.025C1475.8 368.561 1478.83 368.398 1480.38 366.962ZM1216.37 398.162C1210.74 396.216 1206 393.439 1206 392.088C1206 391.611 1206.81 390.219 1207.8 388.994L1209.61 386.767L1215.05 389.599C1219.63 391.977 1221.73 392.436 1228.22 392.465C1234.9 392.495 1236.24 392.199 1238.17 390.272C1240.67 387.77 1241.19 382.142 1239.15 379.675C1238.45 378.843 1234.43 376.947 1230.2 375.461C1215.7 370.372 1212.37 368.391 1209.97 363.428C1206.08 355.413 1209.14 347.546 1217.77 343.323C1222.33 341.093 1223.99 340.802 1229.8 341.218C1242.1 342.098 1248.99 346.872 1244.46 351.394C1243.08 352.775 1242.51 352.711 1238.74 350.748C1236.2 349.422 1232.11 348.411 1228.31 348.169C1222.45 347.796 1221.89 347.956 1219.04 350.809C1212.56 357.288 1215.88 361.908 1230.67 367.007C1237.03 369.199 1241.64 371.479 1243.89 373.542C1246.94 376.334 1247.4 377.41 1247.76 382.605C1248.11 387.551 1247.8 389.064 1245.83 392C1240.78 399.527 1228.04 402.194 1216.37 398.162ZM1266.48 398.8C1266.2 398.069 1266.09 385.103 1266.23 369.986L1266.5 342.5L1269.72 342.189C1272.37 341.932 1273.03 342.279 1273.5 344.189C1273.81 345.46 1273.94 358.425 1273.78 373L1273.5 399.5L1270.24 399.814C1268.21 400.009 1266.79 399.627 1266.48 398.8ZM1370.23 399.166C1369.25 398.542 1369.03 392.11 1369.23 370.431L1369.5 342.5L1372.9 342.176C1376.57 341.825 1377.96 343.072 1377.98 346.75C1378 349.346 1380.16 349.714 1382.05 347.442C1382.76 346.586 1385.33 344.721 1387.75 343.299C1395.45 338.79 1407.71 340.6 1413.7 347.128C1418.61 352.48 1419.34 356.164 1419.79 378.147C1420.22 398.672 1420.21 398.799 1418.04 399.488C1416.84 399.869 1414.76 399.906 1413.43 399.571L1411 398.962V380.046C1411 369.112 1410.55 359.942 1409.94 358.315C1407.37 351.519 1399 347.027 1391.52 348.431C1387.44 349.195 1381.69 353.851 1379.2 358.398C1377.78 360.997 1377.5 364.464 1377.5 379.785C1377.5 394.951 1377.24 398.233 1376 399.02C1374.17 400.181 1371.92 400.238 1370.23 399.166ZM961 398.422C961 398.046 962.67 395.435 964.712 392.619C981.682 369.216 986.996 361.321 986.972 359.552C986.957 358.423 981.797 350.3 975.506 341.5C969.215 332.7 964.053 324.712 964.034 323.75C964.008 322.432 964.803 322.004 967.25 322.015C969.037 322.023 970.98 322.361 971.566 322.765C972.153 323.169 977.258 329.882 982.912 337.682C989.316 346.518 993.684 351.675 994.499 351.362C995.218 351.086 999.944 344.623 1005 337C1010.06 329.377 1014.86 322.884 1015.68 322.57C1016.5 322.257 1018.53 322 1020.2 322C1022.67 322 1023.14 322.348 1022.75 323.862C1022.48 324.885 1017.25 333.166 1011.13 342.263C1005.01 351.359 1000 359.223 1000 359.737C1000 360.588 1004.28 367.02 1019.64 389.263C1022.59 393.533 1025 397.495 1025 398.068C1025 398.687 1023.07 398.986 1020.25 398.805L1015.5 398.5L1005.42 383.557C999.876 375.338 994.852 368.451 994.256 368.252C992.95 367.817 990.569 370.813 979.758 386.5L971.487 398.5L966.243 398.802C963.36 398.968 961 398.797 961 398.422ZM1506.48 397.796C1506.2 397.067 1506.09 384.327 1506.23 369.485L1506.5 342.5H1510.5H1514.5L1514.8 347.25C1515.17 352.998 1516.71 353.374 1520.35 348.602C1523.11 344.996 1530.18 341 1533.82 341C1535.73 341 1536 341.541 1536 345.455C1536 349.815 1535.92 349.924 1532.25 350.588C1526.57 351.616 1523.26 353.657 1520.03 358.115C1515.6 364.228 1514.91 367.55 1514.7 383.678L1514.5 398.5L1510.74 398.811C1508.31 399.012 1506.8 398.655 1506.48 397.796ZM1265.71 329.381C1265.32 328.988 1265 326.717 1265 324.333V320H1269.55H1274.11L1273.8 324.75C1273.51 329.398 1273.42 329.506 1269.96 329.798C1268.02 329.961 1266.11 329.774 1265.71 329.381ZM1317.92 319.59C1302.39 316.827 1285 309.827 1285 306.34C1285 303.882 1295.33 284.01 1296.61 284.005C1297.22 284.003 1300.62 285.315 1304.17 286.923C1313.8 291.288 1322.45 293.26 1332 293.268C1342.06 293.276 1346.88 292.098 1353.22 288.073C1359.67 283.982 1362.87 277.54 1363.68 266.966C1364.42 257.365 1363.79 257.052 1356.82 263.57C1339.09 280.154 1309.34 277.635 1291.74 258.059C1274.91 239.332 1273.65 206.048 1288.96 184.246C1297.74 171.744 1309.57 165.195 1325.04 164.261C1339.41 163.395 1349.08 166.563 1358.58 175.244C1364.51 180.665 1364.77 180.561 1365.22 172.567C1365.57 166.378 1365.85 166.293 1384.3 166.811L1398.11 167.199L1397.76 221.849C1397.45 271.266 1397.25 277.027 1395.61 282C1387.23 307.547 1369.45 319.324 1337.5 320.497C1329.9 320.776 1322.72 320.444 1317.92 319.59ZM1350.4 243.527C1355.36 241.115 1360.08 236.404 1362.56 231.403C1365.32 225.839 1365.23 213.177 1362.37 207C1356.92 195.192 1343.91 189.544 1330.92 193.344C1324.05 195.356 1319.23 199.344 1315.47 206.144C1312.9 210.77 1312.5 212.522 1312.53 219C1312.58 230.548 1317.59 238.906 1327.52 243.989C1332.67 246.623 1344.54 246.383 1350.4 243.527ZM736.874 307.033C715.013 304.25 693.657 293.682 681.775 279.768C658.952 253.042 653.784 215.624 668.283 182.087C673.125 170.887 678.27 163.605 688.732 153.146L698.087 143.792L693.015 135.146C690.225 130.391 687.57 125.825 687.114 125C686.658 124.175 685.612 123.367 684.789 123.205C683.168 122.885 670.967 135.389 662.302 146.248C659.339 149.962 656.529 153 656.058 153C655.007 153 654.23 137.129 653.512 101C653.212 85.875 652.679 67.3125 652.329 59.75C651.816 48.6867 651.951 46 653.016 46C653.744 46 660.342 50.5274 667.678 56.0609C680.607 65.8138 706.249 83.2838 728.317 97.3746C734.239 101.156 738.919 104.744 738.717 105.349C738.292 106.624 736.653 107.004 716.5 110.497C698.702 113.581 698 113.767 698 115.394C698 117.008 706.622 133.042 708.503 134.929C709.739 136.167 711.301 135.933 720.214 133.175C732.361 129.416 741.207 128.046 753.5 128.021C769.68 127.988 784.141 131.454 798.5 138.805C805.572 142.426 809.335 145.243 816.069 151.957C825.557 161.416 830.333 169.02 834.624 181.5C837.161 188.88 837.38 190.74 837.437 205.5C837.492 219.575 837.219 222.402 835.162 229C831.915 239.415 827.084 247.684 820.745 253.68C812.077 261.878 803.77 265.006 790.701 264.994C781.328 264.986 777.162 263.435 771.607 257.887C768.916 255.199 766.507 253 766.254 253C766.001 253 763.621 254.954 760.965 257.342C754.972 262.73 747.247 265.349 737.516 265.293C715.186 265.163 700.529 246.861 702.318 221.34C702.942 212.442 706.531 200.362 710.631 193.367C719.404 178.397 733.948 169.959 748.617 171.329C756.786 172.092 761.562 174.176 766.729 179.235C769.055 181.512 771.148 183.178 771.379 182.938C771.611 182.697 772.196 180.475 772.68 178L773.559 173.5L783.441 173.212C788.877 173.053 793.659 173.278 794.068 173.712C794.478 174.145 793.062 187.55 790.921 203.5C788.781 219.45 787.023 234.638 787.015 237.25C786.968 252.143 806.34 248.896 814.28 232.68C825.979 208.788 819.339 178.184 798.801 161.337C777.493 143.858 740.283 140.875 716.127 154.71C700.075 163.903 689.326 177.316 682.695 196.427C679.698 205.067 679.549 206.216 679.585 220.5C679.619 234.206 679.86 236.19 682.374 243.5C690.215 266.301 706.283 280.746 730.907 287.131C745.811 290.995 770.77 289.456 783.805 283.869C786.203 282.841 788.769 282 789.506 282C791.141 282 798 292.718 798 295.274C798 297.667 789.583 301.435 777.167 304.599C766.63 307.284 747.788 308.422 736.874 307.033ZM753.753 244.11C763.454 239.121 769 227.313 769 211.647C769 198.483 760.995 190 748.575 190C741.902 190 736.73 192.318 731.586 197.614C719.812 209.738 719.534 231.619 731.032 241.272C738.148 247.247 745.798 248.202 753.753 244.11ZM675.993 110.507C682.735 103.704 684.411 102.858 695 100.914C698.575 100.257 702.093 99.4109 702.817 99.0329C703.681 98.5821 699.552 94.8962 690.817 88.3194C683.493 82.805 675.258 76.4272 672.518 74.1466C664.833 67.7495 664.59 68.0081 665.369 81.75C665.736 88.2125 666.319 98.7875 666.665 105.25C667.078 112.958 667.684 117 668.426 117C669.048 117 672.454 114.078 675.993 110.507ZM892 281.409C873.478 276.492 859.795 261.944 854.466 241.5C852.351 233.386 852.339 215.522 854.443 206.528C859.373 185.455 873.677 169.881 892.087 165.541C907.504 161.907 922.903 165.333 933.356 174.723C935.564 176.706 937.587 177.813 938.089 177.311C938.571 176.829 939.086 164.749 939.233 150.467L939.5 124.5L954.865 124.223C965.346 124.035 970.671 124.312 971.615 125.096C973.52 126.676 973.7 277.9 971.8 279.8C970.976 280.624 966.022 281 956 281C945.978 281 941.024 280.624 940.2 279.8C939.54 279.14 939 276.515 939 273.967C939 271.418 938.72 269.053 938.377 268.711C938.035 268.368 935.672 269.819 933.127 271.936C921.27 281.796 906.38 285.226 892 281.409ZM924.641 251.183C930.243 248.325 935.443 242.193 937.489 236.033C940.111 228.138 939.259 214.235 935.732 207.38C931.017 198.215 923.57 193.674 913.326 193.72C897.048 193.793 886.101 207.259 887.211 225.845C888.02 239.386 895.173 249.249 906.993 253.125C910.974 254.431 920.283 253.406 924.641 251.183ZM1033 280.717C1022.1 277.387 1015.37 273.414 1007.83 265.86C990.205 248.198 986.196 219.77 997.914 195.56C1005.26 180.393 1017.81 170.269 1034.6 165.975C1055.02 160.751 1075.05 165.817 1087.79 179.431C1098.77 191.177 1103.26 204.301 1102.78 223.295L1102.5 234.5L1064.51 235C1021.32 235.569 1023.26 235.089 1028.89 243.787C1038.04 257.92 1058.92 260.124 1073.8 248.528C1076.29 246.588 1078.6 245 1078.93 245C1080.32 245 1097 260.22 1097 261.493C1097 263.354 1089.08 270.715 1082.8 274.7C1073.86 280.364 1066.94 282.207 1053 282.629C1042.14 282.958 1039.52 282.708 1033 280.717ZM1071 212.366C1071 203.169 1063.95 194.146 1055.1 192.023C1046.75 190.021 1037.6 192.485 1032.31 198.156C1029.37 201.31 1024.68 211.717 1025.38 213.54C1025.85 214.76 1029.64 215 1048.47 215H1071V212.366ZM1148 281.498C1133.96 278.659 1114 269.526 1114 265.939C1114 264.671 1124.18 247.572 1125.64 246.385C1126.7 245.527 1129.27 246.397 1136.76 250.144C1151.66 257.602 1162.91 259.736 1170.53 256.552C1177.53 253.626 1177.36 246.239 1170.19 242.244C1168.16 241.112 1161.77 238.732 1156 236.955C1128.06 228.356 1118.96 219.32 1119.02 200.212C1119.07 183.822 1127.72 171.899 1143.5 166.468C1151.44 163.735 1166.69 163.433 1178.06 165.785C1188.39 167.923 1202.63 173.885 1203.64 176.492C1204.49 178.728 1194.42 199 1192.45 199C1191.62 199 1188.81 197.926 1186.22 196.614C1171.04 188.934 1153.17 187.896 1150.62 194.545C1148.55 199.944 1151.66 203.566 1161.53 207.255C1165.36 208.687 1172.88 211.499 1178.24 213.504C1191.79 218.572 1198.87 223.965 1203 232.349C1205.85 238.143 1206.2 239.788 1206.2 247.5C1206.2 255.179 1205.85 256.869 1203.06 262.534C1198.14 272.532 1190.04 278.363 1176.72 281.503C1169.18 283.281 1156.81 283.278 1148 281.498ZM71.2186 279.25C70.2797 276.964 70.2797 137.036 71.2186 134.75C71.89 133.115 75.3525 133 123.91 133C160.53 133 176.082 133.324 176.56 134.097C177.909 136.279 178.27 160.97 176.976 162.529C175.944 163.773 170.296 164 140.397 164H105.038L104.433 166.41C103.675 169.431 104.275 192.615 105.134 193.47C105.483 193.817 120.108 194.37 137.634 194.699C159.091 195.102 169.74 195.657 170.235 196.399C171.222 197.879 171.178 222.172 170.184 223.736C169.594 224.665 161.482 225.037 137.45 225.236L105.5 225.5L105.233 251.918C105.057 269.363 104.591 278.788 103.861 279.668C103.027 280.672 98.9596 281 87.3461 281C73.6114 281 71.8591 280.81 71.2186 279.25ZM197.2 279.8C195.464 278.064 195.464 135.936 197.2 134.2C198.031 133.369 203.221 133 214.093 133C227.48 133 229.875 133.232 230.393 134.582C230.727 135.452 231 168.212 231 207.382C231 261.44 230.711 278.889 229.8 279.8C228.122 281.477 198.877 281.477 197.2 279.8ZM245.192 279.731C244.419 278.8 248.931 266.613 262.13 233.981C288.862 167.892 302.159 135.65 303.261 134.25C303.976 133.342 308.687 133 320.5 133C332.313 133 337.024 133.342 337.738 134.25C338.695 135.466 361.584 190.212 377.979 230.5C382.456 241.5 388.626 256.66 391.69 264.188C394.754 271.716 396.992 278.579 396.662 279.438C396.151 280.769 393.56 281 379.154 281C366.559 281 361.971 280.671 361.173 279.709C360.584 278.999 357.924 272.811 355.262 265.959L350.422 253.5L320.304 253.235L290.186 252.971L287.454 260.235C282.02 274.687 279.957 279.409 278.74 280.182C276.549 281.573 246.384 281.168 245.192 279.731ZM337.587 221.633C338.028 220.485 324.838 185.422 321.788 179.633C320.965 178.072 320.603 177.99 319.572 179.133C317.55 181.376 302.714 220.727 303.444 221.91C304.522 223.654 336.912 223.392 337.587 221.633ZM411.035 279.066C409.407 276.023 409.62 136.902 411.256 134.664C412.368 133.143 414.344 132.978 428.506 133.223L444.5 133.5L445.02 191C445.307 222.625 445.644 248.612 445.77 248.75C445.897 248.888 457.812 249.007 472.25 249.015C487.017 249.024 499.156 249.445 500 249.978C501.129 250.69 501.585 253.406 501.844 260.962C502.033 266.483 502.523 271 502.933 271C503.942 271 504.317 270.139 519.474 233C554.042 148.296 559.364 135.415 560.271 134.25C560.981 133.338 565.782 133 577.999 133H594.754L596.794 137.75C597.916 140.362 607.826 164.55 618.816 191.5C629.806 218.45 642.277 248.911 646.529 259.191C650.78 269.471 653.99 278.584 653.661 279.441C653.151 280.77 650.498 281 635.654 281C622.93 281 617.974 280.664 617.238 279.75C616.685 279.062 615.098 275.35 613.712 271.5C612.325 267.65 610.216 261.912 609.024 258.75L606.856 253H577.051C554.374 253 547.02 253.299 546.305 254.25C545.788 254.938 543.434 260.675 541.074 267C538.714 273.325 536.071 279.062 535.2 279.75C533.974 280.719 519.952 281 472.844 281C413.782 281 412.041 280.945 411.035 279.066ZM593.852 221.679C595.366 219.855 579.168 178.857 577.085 179.24C575.675 179.499 560.156 216.842 560.053 220.224C560.005 221.77 561.574 221.979 575.25 222.252C583.637 222.419 591.007 222.656 591.628 222.778C592.248 222.9 593.248 222.405 593.852 221.679ZM1226.22 279.824C1224.89 278.49 1224.68 221.599 1225.88 186L1226.5 167.5H1242.5H1258.5V224V280.5L1242.97 280.774C1231.74 280.973 1227.11 280.71 1226.22 279.824ZM1425.23 279.275C1424.83 278.299 1424.5 252.75 1424.5 222.5V167.5H1441H1457.5L1457.8 173.75C1457.96 177.188 1458.36 180 1458.69 180C1459.02 180 1461.49 177.944 1464.18 175.43C1473.26 166.932 1485.85 163.29 1500 165.066C1512.52 166.638 1522.19 173.099 1527.38 183.36C1532.41 193.283 1532.96 199.056 1532.98 241.231L1533 279.962L1530.75 280.518C1529.51 280.825 1522.2 280.946 1514.5 280.788L1500.5 280.5L1499.99 246.5C1499.54 216.708 1499.25 212.005 1497.68 208.5C1493.72 199.644 1486.37 195.443 1476.13 196.184C1469.03 196.698 1464.17 199.893 1460.74 206.308C1458.57 210.362 1458.48 211.652 1458 245.5L1457.5 280.5L1441.73 280.776C1427.41 281.026 1425.89 280.887 1425.23 279.275ZM1225.67 152.333C1225.3 151.967 1225 145.45 1225 137.852C1225 124.358 1225.05 124.025 1227.25 123.482C1228.49 123.177 1236.25 123.056 1244.5 123.213L1259.5 123.5L1259.78 137.423C1259.99 147.89 1259.74 151.547 1258.78 152.158C1257.25 153.128 1226.62 153.291 1225.67 152.333Z" fill="url(#paint0_linear_8_379)"/>
<defs>
<linearGradient id="paint0_linear_8_379" x1="803" y1="-19.5" x2="803.257" y2="419.857" gradientUnits="userSpaceOnUse">
<stop stop-color="#F0FF9C"/>
<stop offset="0.591346" stop-color="#BDD531"/>
</linearGradient>
</defs>
</svg>
